<mxfile host="app.diagrams.net" modified="2023-09-22T17:04:13.338Z" agent="Mozilla/5.0 (X11; Linux x86_64) AppleWebKit/537.36 (KHTML, like Gecko) Chrome/117.0.0.0 Safari/537.36" etag="jFphuP7SfB4kwo56WAlB" version="21.8.0" type="device">
  <diagram name="Page-1" id="ndGJzlXrIU8CfeqaNyqw">
    <mxGraphModel dx="989" dy="545" grid="1" gridSize="10" guides="1" tooltips="1" connect="1" arrows="1" fold="1" page="1" pageScale="1" pageWidth="850" pageHeight="1100" background="none" math="0" shadow="0">
      <root>
        <mxCell id="0" />
        <mxCell id="1" parent="0" />
        <mxCell id="X93Lmip0L_ZCADtNSoCG-7" style="edgeStyle=orthogonalEdgeStyle;rounded=0;orthogonalLoop=1;jettySize=auto;html=1;exitX=1;exitY=0.3333333333333333;exitDx=0;exitDy=0;exitPerimeter=0;entryX=0;entryY=0.5;entryDx=0;entryDy=0;" parent="1" source="X93Lmip0L_ZCADtNSoCG-1" target="X93Lmip0L_ZCADtNSoCG-6" edge="1">
          <mxGeometry relative="1" as="geometry" />
        </mxCell>
        <mxCell id="X93Lmip0L_ZCADtNSoCG-10" style="edgeStyle=orthogonalEdgeStyle;rounded=0;orthogonalLoop=1;jettySize=auto;html=1;exitX=0.75;exitY=0.1;exitDx=0;exitDy=0;exitPerimeter=0;entryX=0;entryY=0.5;entryDx=0;entryDy=0;" parent="1" source="X93Lmip0L_ZCADtNSoCG-1" target="X93Lmip0L_ZCADtNSoCG-9" edge="1">
          <mxGeometry relative="1" as="geometry" />
        </mxCell>
        <mxCell id="X93Lmip0L_ZCADtNSoCG-12" style="edgeStyle=orthogonalEdgeStyle;rounded=0;orthogonalLoop=1;jettySize=auto;html=1;exitX=0.75;exitY=0.1;exitDx=0;exitDy=0;exitPerimeter=0;entryX=0;entryY=0.5;entryDx=0;entryDy=0;" parent="1" source="X93Lmip0L_ZCADtNSoCG-1" target="X93Lmip0L_ZCADtNSoCG-11" edge="1">
          <mxGeometry relative="1" as="geometry" />
        </mxCell>
        <mxCell id="X93Lmip0L_ZCADtNSoCG-14" style="edgeStyle=orthogonalEdgeStyle;rounded=0;orthogonalLoop=1;jettySize=auto;html=1;exitX=0.5;exitY=0;exitDx=0;exitDy=0;exitPerimeter=0;" parent="1" source="X93Lmip0L_ZCADtNSoCG-1" target="X93Lmip0L_ZCADtNSoCG-13" edge="1">
          <mxGeometry relative="1" as="geometry" />
        </mxCell>
        <mxCell id="X93Lmip0L_ZCADtNSoCG-17" style="edgeStyle=orthogonalEdgeStyle;rounded=0;orthogonalLoop=1;jettySize=auto;html=1;exitX=0.5;exitY=0.5;exitDx=0;exitDy=0;exitPerimeter=0;" parent="1" source="X93Lmip0L_ZCADtNSoCG-1" target="X93Lmip0L_ZCADtNSoCG-15" edge="1">
          <mxGeometry relative="1" as="geometry" />
        </mxCell>
        <mxCell id="X93Lmip0L_ZCADtNSoCG-20" style="edgeStyle=orthogonalEdgeStyle;rounded=0;orthogonalLoop=1;jettySize=auto;html=1;exitX=0.5;exitY=0.5;exitDx=0;exitDy=0;exitPerimeter=0;" parent="1" source="X93Lmip0L_ZCADtNSoCG-1" target="X93Lmip0L_ZCADtNSoCG-18" edge="1">
          <mxGeometry relative="1" as="geometry" />
        </mxCell>
        <mxCell id="X93Lmip0L_ZCADtNSoCG-24" style="edgeStyle=orthogonalEdgeStyle;rounded=0;orthogonalLoop=1;jettySize=auto;html=1;exitX=0.5;exitY=0.5;exitDx=0;exitDy=0;exitPerimeter=0;entryX=0;entryY=0.5;entryDx=0;entryDy=0;" parent="1" source="X93Lmip0L_ZCADtNSoCG-1" target="X93Lmip0L_ZCADtNSoCG-23" edge="1">
          <mxGeometry relative="1" as="geometry" />
        </mxCell>
        <mxCell id="X93Lmip0L_ZCADtNSoCG-26" style="edgeStyle=orthogonalEdgeStyle;rounded=0;orthogonalLoop=1;jettySize=auto;html=1;exitX=0.5;exitY=0.5;exitDx=0;exitDy=0;exitPerimeter=0;entryX=0;entryY=0.5;entryDx=0;entryDy=0;" parent="1" source="X93Lmip0L_ZCADtNSoCG-1" target="X93Lmip0L_ZCADtNSoCG-25" edge="1">
          <mxGeometry relative="1" as="geometry" />
        </mxCell>
        <mxCell id="X93Lmip0L_ZCADtNSoCG-30" style="edgeStyle=orthogonalEdgeStyle;rounded=0;orthogonalLoop=1;jettySize=auto;html=1;exitX=1;exitY=1;exitDx=0;exitDy=0;exitPerimeter=0;entryX=0;entryY=0.5;entryDx=0;entryDy=0;" parent="1" source="X93Lmip0L_ZCADtNSoCG-1" target="X93Lmip0L_ZCADtNSoCG-29" edge="1">
          <mxGeometry relative="1" as="geometry" />
        </mxCell>
        <mxCell id="X93Lmip0L_ZCADtNSoCG-32" style="edgeStyle=orthogonalEdgeStyle;rounded=0;orthogonalLoop=1;jettySize=auto;html=1;exitX=1;exitY=1;exitDx=0;exitDy=0;exitPerimeter=0;entryX=0;entryY=0.5;entryDx=0;entryDy=0;" parent="1" source="X93Lmip0L_ZCADtNSoCG-1" target="X93Lmip0L_ZCADtNSoCG-31" edge="1">
          <mxGeometry relative="1" as="geometry" />
        </mxCell>
        <mxCell id="X93Lmip0L_ZCADtNSoCG-34" style="edgeStyle=orthogonalEdgeStyle;rounded=0;orthogonalLoop=1;jettySize=auto;html=1;exitX=1;exitY=1;exitDx=0;exitDy=0;exitPerimeter=0;entryX=0;entryY=0.5;entryDx=0;entryDy=0;" parent="1" source="X93Lmip0L_ZCADtNSoCG-1" target="X93Lmip0L_ZCADtNSoCG-33" edge="1">
          <mxGeometry relative="1" as="geometry" />
        </mxCell>
        <mxCell id="X93Lmip0L_ZCADtNSoCG-38" style="edgeStyle=orthogonalEdgeStyle;rounded=0;orthogonalLoop=1;jettySize=auto;html=1;exitX=1;exitY=1;exitDx=0;exitDy=0;exitPerimeter=0;entryX=0;entryY=0.5;entryDx=0;entryDy=0;" parent="1" source="X93Lmip0L_ZCADtNSoCG-1" target="X93Lmip0L_ZCADtNSoCG-37" edge="1">
          <mxGeometry relative="1" as="geometry" />
        </mxCell>
        <mxCell id="X93Lmip0L_ZCADtNSoCG-1" value="Usuario" style="shape=umlActor;verticalLabelPosition=bottom;verticalAlign=top;html=1;outlineConnect=0;" parent="1" vertex="1">
          <mxGeometry x="20" y="280" width="30" height="60" as="geometry" />
        </mxCell>
        <mxCell id="X93Lmip0L_ZCADtNSoCG-6" value="&lt;font style=&quot;font-size: 10px;&quot;&gt;Realizar cadastro com e-mail e&lt;br&gt;senha, nome, data de nascimento, gênero, filme favorito e estilo de filme&lt;br&gt;favorito&lt;/font&gt;" style="ellipse;whiteSpace=wrap;html=1;" parent="1" vertex="1">
          <mxGeometry x="100" y="30" width="200" height="100" as="geometry" />
        </mxCell>
        <mxCell id="X93Lmip0L_ZCADtNSoCG-9" value="&lt;font style=&quot;font-size: 10px;&quot;&gt;Confirmar e-mail por meio de código de confirmação&lt;/font&gt;" style="ellipse;whiteSpace=wrap;html=1;" parent="1" vertex="1">
          <mxGeometry x="100" y="130" width="130" height="70" as="geometry" />
        </mxCell>
        <mxCell id="X93Lmip0L_ZCADtNSoCG-11" value="&lt;font style=&quot;font-size: 10px;&quot;&gt;Realizar login e logout no sistema&lt;/font&gt;" style="ellipse;whiteSpace=wrap;html=1;" parent="1" vertex="1">
          <mxGeometry x="100" y="200" width="170" height="40" as="geometry" />
        </mxCell>
        <mxCell id="X93Lmip0L_ZCADtNSoCG-13" value="&lt;font style=&quot;font-size: 9px;&quot;&gt;Alterar a senha através do email associado&lt;/font&gt;" style="ellipse;whiteSpace=wrap;html=1;" parent="1" vertex="1">
          <mxGeometry x="100" y="240" width="170" height="40" as="geometry" />
        </mxCell>
        <mxCell id="X93Lmip0L_ZCADtNSoCG-15" value="&lt;font style=&quot;font-size: 10px;&quot;&gt;Buscar filmes&lt;br&gt;&lt;/font&gt;" style="ellipse;whiteSpace=wrap;html=1;" parent="1" vertex="1">
          <mxGeometry x="190" y="290" width="80" height="30" as="geometry" />
        </mxCell>
        <mxCell id="X93Lmip0L_ZCADtNSoCG-18" value="&lt;font style=&quot;font-size: 9px;&quot;&gt;Observar as informações básicas do&lt;br&gt;filme&lt;/font&gt;" style="ellipse;whiteSpace=wrap;html=1;" parent="1" vertex="1">
          <mxGeometry x="100" y="330" width="180" height="40" as="geometry" />
        </mxCell>
        <mxCell id="X93Lmip0L_ZCADtNSoCG-21" value="&lt;font style=&quot;font-size: 8px;&quot;&gt;enredo, gênero, elenco, duração, diretor, notas de sites de&lt;br&gt;avaliação (IMDb e Rotten Tomatoes) e prêmios conquistados&lt;/font&gt;" style="text;html=1;strokeColor=none;fillColor=none;align=center;verticalAlign=middle;whiteSpace=wrap;rounded=0;" parent="1" vertex="1">
          <mxGeometry x="630" y="310" width="140" height="20" as="geometry" />
        </mxCell>
        <mxCell id="X93Lmip0L_ZCADtNSoCG-23" value="&lt;font style=&quot;font-size: 8px;&quot;&gt;Observar as plataformas de streaming&lt;br&gt;que o filme desejado está presente;&lt;/font&gt;" style="ellipse;whiteSpace=wrap;html=1;" parent="1" vertex="1">
          <mxGeometry x="100" y="380" width="180" height="40" as="geometry" />
        </mxCell>
        <mxCell id="X93Lmip0L_ZCADtNSoCG-25" value="&lt;font style=&quot;font-size: 8px;&quot;&gt;Gerenciar lista de filmes favoritos&lt;/font&gt;" style="ellipse;whiteSpace=wrap;html=1;" parent="1" vertex="1">
          <mxGeometry x="100" y="430" width="130" height="20" as="geometry" />
        </mxCell>
        <mxCell id="X93Lmip0L_ZCADtNSoCG-29" value="&lt;font style=&quot;font-size: 8px;&quot;&gt;Adicionar avaliações por corações aos filmes assistidos&lt;br&gt;&lt;/font&gt;" style="ellipse;whiteSpace=wrap;html=1;" parent="1" vertex="1">
          <mxGeometry x="100" y="490" width="180" height="40" as="geometry" />
        </mxCell>
        <mxCell id="X93Lmip0L_ZCADtNSoCG-31" value="&lt;font style=&quot;font-size: 8px;&quot;&gt;Adicionar comentários aos filmes assistidos&lt;br&gt;&lt;/font&gt;" style="ellipse;whiteSpace=wrap;html=1;" parent="1" vertex="1">
          <mxGeometry x="100" y="540" width="180" height="40" as="geometry" />
        </mxCell>
        <mxCell id="X93Lmip0L_ZCADtNSoCG-33" value="&lt;font style=&quot;font-size: 8px;&quot;&gt;Pesquisar por outros usuários através do login do outro usuário&lt;br&gt;&lt;/font&gt;" style="ellipse;whiteSpace=wrap;html=1;" parent="1" vertex="1">
          <mxGeometry x="100" y="590" width="245" height="40" as="geometry" />
        </mxCell>
        <mxCell id="X93Lmip0L_ZCADtNSoCG-37" value="&lt;font style=&quot;font-size: 8px;&quot;&gt;Visualizar avaliações de outros usuários&lt;br&gt;&lt;/font&gt;" style="ellipse;whiteSpace=wrap;html=1;" parent="1" vertex="1">
          <mxGeometry x="100" y="650" width="160" height="20" as="geometry" />
        </mxCell>
        <mxCell id="X93Lmip0L_ZCADtNSoCG-39" value="&lt;font style=&quot;font-size: 8px;&quot;&gt;por meio de corações e por meio de feedback dos usuários que ele segue.&lt;/font&gt;" style="text;html=1;strokeColor=none;fillColor=none;align=center;verticalAlign=middle;whiteSpace=wrap;rounded=0;" parent="1" vertex="1">
          <mxGeometry x="240" y="630" width="160" height="30" as="geometry" />
        </mxCell>
        <mxCell id="X93Lmip0L_ZCADtNSoCG-48" style="edgeStyle=orthogonalEdgeStyle;rounded=0;orthogonalLoop=1;jettySize=auto;html=1;exitX=0.75;exitY=0.1;exitDx=0;exitDy=0;exitPerimeter=0;" parent="1" source="X93Lmip0L_ZCADtNSoCG-40" target="X93Lmip0L_ZCADtNSoCG-43" edge="1">
          <mxGeometry relative="1" as="geometry" />
        </mxCell>
        <mxCell id="X93Lmip0L_ZCADtNSoCG-49" style="edgeStyle=orthogonalEdgeStyle;rounded=0;orthogonalLoop=1;jettySize=auto;html=1;exitX=1;exitY=0.3333333333333333;exitDx=0;exitDy=0;exitPerimeter=0;" parent="1" source="X93Lmip0L_ZCADtNSoCG-40" target="X93Lmip0L_ZCADtNSoCG-44" edge="1">
          <mxGeometry relative="1" as="geometry" />
        </mxCell>
        <mxCell id="X93Lmip0L_ZCADtNSoCG-51" style="edgeStyle=orthogonalEdgeStyle;rounded=0;orthogonalLoop=1;jettySize=auto;html=1;exitX=0.5;exitY=0.5;exitDx=0;exitDy=0;exitPerimeter=0;" parent="1" source="X93Lmip0L_ZCADtNSoCG-40" target="X93Lmip0L_ZCADtNSoCG-45" edge="1">
          <mxGeometry relative="1" as="geometry" />
        </mxCell>
        <mxCell id="X93Lmip0L_ZCADtNSoCG-52" style="edgeStyle=orthogonalEdgeStyle;rounded=0;orthogonalLoop=1;jettySize=auto;html=1;exitX=0.75;exitY=0.1;exitDx=0;exitDy=0;exitPerimeter=0;entryX=0;entryY=0.5;entryDx=0;entryDy=0;" parent="1" source="X93Lmip0L_ZCADtNSoCG-40" target="X93Lmip0L_ZCADtNSoCG-46" edge="1">
          <mxGeometry relative="1" as="geometry" />
        </mxCell>
        <mxCell id="X93Lmip0L_ZCADtNSoCG-40" value="&lt;div&gt;Admin&lt;/div&gt;" style="shape=umlActor;verticalLabelPosition=bottom;verticalAlign=top;html=1;outlineConnect=0;" parent="1" vertex="1">
          <mxGeometry x="20" y="780" width="30" height="60" as="geometry" />
        </mxCell>
        <mxCell id="X93Lmip0L_ZCADtNSoCG-43" value="&lt;font style=&quot;font-size: 8px;&quot;&gt;Visualizar a listagem de todos os usuários cadastrados&lt;br&gt;&lt;/font&gt;" style="ellipse;whiteSpace=wrap;html=1;" parent="1" vertex="1">
          <mxGeometry x="100" y="750" width="140" height="30" as="geometry" />
        </mxCell>
        <mxCell id="X93Lmip0L_ZCADtNSoCG-44" value="&lt;font style=&quot;font-size: 9px;&quot;&gt;Excluir o cadastro de um usuário&lt;br&gt;&lt;/font&gt;" style="ellipse;whiteSpace=wrap;html=1;" parent="1" vertex="1">
          <mxGeometry x="100" y="790" width="140" height="20" as="geometry" />
        </mxCell>
        <mxCell id="X93Lmip0L_ZCADtNSoCG-45" value="&lt;font style=&quot;font-size: 8px;&quot;&gt;Excluir os filmes cadastrados no sistema&lt;br&gt;&lt;/font&gt;" style="ellipse;whiteSpace=wrap;html=1;" parent="1" vertex="1">
          <mxGeometry x="100" y="820" width="140" height="30" as="geometry" />
        </mxCell>
        <mxCell id="X93Lmip0L_ZCADtNSoCG-46" value="&lt;font style=&quot;font-size: 8px;&quot;&gt;Realizar o login/logout do sistema&lt;br&gt;&lt;/font&gt;" style="ellipse;whiteSpace=wrap;html=1;" parent="1" vertex="1">
          <mxGeometry x="100" y="720" width="140" height="20" as="geometry" />
        </mxCell>
        <mxCell id="X93Lmip0L_ZCADtNSoCG-69" value="&lt;div&gt;Cadastrar filme&lt;/div&gt;" style="ellipse;whiteSpace=wrap;html=1;" parent="1" vertex="1">
          <mxGeometry x="335" y="380" width="120" height="20" as="geometry" />
        </mxCell>
        <mxCell id="X93Lmip0L_ZCADtNSoCG-71" value="Remover filme" style="ellipse;whiteSpace=wrap;html=1;" parent="1" vertex="1">
          <mxGeometry x="335" y="460" width="120" height="20" as="geometry" />
        </mxCell>
        <mxCell id="X93Lmip0L_ZCADtNSoCG-72" value="&amp;lt;&amp;lt;extend&amp;gt;&amp;gt;" style="html=1;verticalAlign=bottom;endArrow=open;dashed=1;endSize=8;curved=0;rounded=0;exitX=0;exitY=0.5;exitDx=0;exitDy=0;entryX=1;entryY=0.5;entryDx=0;entryDy=0;" parent="1" source="X93Lmip0L_ZCADtNSoCG-69" edge="1" target="X93Lmip0L_ZCADtNSoCG-25">
          <mxGeometry x="-0.2348" y="12" relative="1" as="geometry">
            <mxPoint x="489.4399999999998" y="386.0999999999999" as="sourcePoint" />
            <mxPoint x="285" y="440" as="targetPoint" />
            <mxPoint as="offset" />
          </mxGeometry>
        </mxCell>
        <mxCell id="X93Lmip0L_ZCADtNSoCG-76" value="&amp;lt;&amp;lt;extend&amp;gt;&amp;gt;" style="html=1;verticalAlign=bottom;endArrow=open;dashed=1;endSize=8;curved=0;rounded=0;exitX=0;exitY=0.5;exitDx=0;exitDy=0;entryX=1.011;entryY=0.647;entryDx=0;entryDy=0;entryPerimeter=0;" parent="1" source="X93Lmip0L_ZCADtNSoCG-71" target="X93Lmip0L_ZCADtNSoCG-25" edge="1">
          <mxGeometry relative="1" as="geometry">
            <mxPoint x="355" y="410" as="sourcePoint" />
            <mxPoint x="284.9999999999998" y="440" as="targetPoint" />
          </mxGeometry>
        </mxCell>
        <mxCell id="X93Lmip0L_ZCADtNSoCG-77" value="" style="endArrow=classic;html=1;rounded=0;exitX=0.722;exitY=0.75;exitDx=0;exitDy=0;exitPerimeter=0;entryX=0;entryY=0;entryDx=0;entryDy=0;" parent="1" source="X93Lmip0L_ZCADtNSoCG-18" target="X93Lmip0L_ZCADtNSoCG-21" edge="1">
          <mxGeometry width="50" height="50" relative="1" as="geometry">
            <mxPoint x="330" y="290" as="sourcePoint" />
            <mxPoint x="380" y="240" as="targetPoint" />
          </mxGeometry>
        </mxCell>
        <mxCell id="X93Lmip0L_ZCADtNSoCG-78" value="&lt;font style=&quot;font-size: 10px;&quot;&gt;Buscar por gênero&lt;br&gt;&lt;/font&gt;" style="ellipse;whiteSpace=wrap;html=1;" parent="1" vertex="1">
          <mxGeometry x="360" y="220" width="100" height="20" as="geometry" />
        </mxCell>
        <mxCell id="X93Lmip0L_ZCADtNSoCG-79" value="" style="endArrow=block;dashed=1;endFill=0;endSize=12;html=1;rounded=0;exitX=0;exitY=0.5;exitDx=0;exitDy=0;entryX=1;entryY=0.5;entryDx=0;entryDy=0;" parent="1" source="X93Lmip0L_ZCADtNSoCG-78" target="X93Lmip0L_ZCADtNSoCG-15" edge="1">
          <mxGeometry width="160" relative="1" as="geometry">
            <mxPoint x="375" y="390" as="sourcePoint" />
            <mxPoint x="240" y="450" as="targetPoint" />
          </mxGeometry>
        </mxCell>
        <mxCell id="X93Lmip0L_ZCADtNSoCG-80" value="&amp;lt;&amp;lt;extend&amp;gt;&amp;gt;" style="edgeLabel;html=1;align=center;verticalAlign=middle;resizable=0;points=[];" parent="X93Lmip0L_ZCADtNSoCG-79" vertex="1" connectable="0">
          <mxGeometry x="-0.1136" y="2" relative="1" as="geometry">
            <mxPoint x="3" y="-9" as="offset" />
          </mxGeometry>
        </mxCell>
        <mxCell id="X93Lmip0L_ZCADtNSoCG-82" value="&lt;font style=&quot;font-size: 10px;&quot;&gt;Buscar por ator&lt;br&gt;&lt;/font&gt;" style="ellipse;whiteSpace=wrap;html=1;" parent="1" vertex="1">
          <mxGeometry x="360" y="260" width="100" height="20" as="geometry" />
        </mxCell>
        <mxCell id="X93Lmip0L_ZCADtNSoCG-83" value="&lt;font style=&quot;font-size: 10px;&quot;&gt;Buscar por diretor&lt;br&gt;&lt;/font&gt;" style="ellipse;whiteSpace=wrap;html=1;" parent="1" vertex="1">
          <mxGeometry x="360" y="300" width="100" height="20" as="geometry" />
        </mxCell>
        <mxCell id="X93Lmip0L_ZCADtNSoCG-84" value="" style="endArrow=block;dashed=1;endFill=0;endSize=12;html=1;rounded=0;exitX=0;exitY=0.5;exitDx=0;exitDy=0;entryX=1;entryY=0.5;entryDx=0;entryDy=0;" parent="1" source="X93Lmip0L_ZCADtNSoCG-82" target="X93Lmip0L_ZCADtNSoCG-15" edge="1">
          <mxGeometry width="160" relative="1" as="geometry">
            <mxPoint x="370" y="240" as="sourcePoint" />
            <mxPoint x="280" y="315" as="targetPoint" />
          </mxGeometry>
        </mxCell>
        <mxCell id="X93Lmip0L_ZCADtNSoCG-85" value="&amp;lt;&amp;lt;extend&amp;gt;&amp;gt;" style="edgeLabel;html=1;align=center;verticalAlign=middle;resizable=0;points=[];" parent="X93Lmip0L_ZCADtNSoCG-84" vertex="1" connectable="0">
          <mxGeometry x="-0.1136" y="2" relative="1" as="geometry">
            <mxPoint x="3" y="-9" as="offset" />
          </mxGeometry>
        </mxCell>
        <mxCell id="X93Lmip0L_ZCADtNSoCG-86" value="" style="endArrow=block;dashed=1;endFill=0;endSize=12;html=1;rounded=0;exitX=0;exitY=0.5;exitDx=0;exitDy=0;entryX=1;entryY=0.5;entryDx=0;entryDy=0;" parent="1" source="X93Lmip0L_ZCADtNSoCG-83" target="X93Lmip0L_ZCADtNSoCG-15" edge="1">
          <mxGeometry width="160" relative="1" as="geometry">
            <mxPoint x="370" y="280" as="sourcePoint" />
            <mxPoint x="280" y="315" as="targetPoint" />
          </mxGeometry>
        </mxCell>
        <mxCell id="X93Lmip0L_ZCADtNSoCG-87" value="&amp;lt;&amp;lt;extend&amp;gt;&amp;gt;" style="edgeLabel;html=1;align=center;verticalAlign=middle;resizable=0;points=[];" parent="X93Lmip0L_ZCADtNSoCG-86" vertex="1" connectable="0">
          <mxGeometry x="-0.1136" y="2" relative="1" as="geometry">
            <mxPoint x="3" y="-9" as="offset" />
          </mxGeometry>
        </mxCell>
      </root>
    </mxGraphModel>
  </diagram>
</mxfile>
